<?xml version="1.0" encoding="utf-8"?>
<!-- Generator: Adobe Illustrator 19.0.0, SVG Export Plug-In . SVG Version: 6.00 Build 0)  -->
<svg version="1.1" id="layer" xmlns="http://www.w3.org/2000/svg" xmlns:xlink="http://www.w3.org/1999/xlink" x="0px" y="0px"
	 viewBox="-153 -46 652 652" style="enable-background:new -153 -46 652 652;" xml:space="preserve">
<path d="M235.5,301.3l18.7-52h-8.8l-12.1,37.1l-14.7-37.1H214l-14.6,37.1l-12.1-37.1h-8.8l18.7,52h4.6l14.6-35.7l14.6,35.7H235.5
	L235.5,301.3z M269.5,301.3h33.7v-7.6h-25.7v-14.9h17.4v-7.6h-17.4V257h24.7v-7.6h-32.7L269.5,301.3L269.5,301.3z M352.8,285.8
	c0,2.2-0.7,4.1-2.1,5.6c-1.4,1.5-3.8,2.3-7.3,2.3h-13.9v-14.9h13.9c3.4,0,5.8,0.6,7.2,1.9C352.1,282,352.8,283.7,352.8,285.8
	L352.8,285.8z M350.5,264c0,1.7-0.6,3.4-1.8,5s-3.6,2.4-7.2,2.4h-12.1V257h12.1c3.9,0,6.3,0.7,7.4,2.2S350.5,262.3,350.5,264
	L350.5,264z M350.6,274.4c2.4-0.8,4.2-2.2,5.5-4.2s2-4.4,2-7.1c0-1.4-0.2-2.9-0.6-4.4c-0.4-1.6-1.3-3.1-2.5-4.4
	c-1.3-1.4-3-2.5-5.3-3.4s-5.3-1.3-9-1.3h-19.2v52h20.3c3.5,0,6.5-0.4,8.8-1.1c2.4-0.8,4.3-1.8,5.8-3.1c1.5-1.3,2.5-2.8,3.1-4.6
	s1-3.7,1-5.8c0-1.6-0.2-3.1-0.7-4.5c-0.4-1.4-1.1-2.6-1.9-3.7c-0.8-1.1-1.9-2-3.1-2.7c-1.2-0.7-2.6-1.3-4.1-1.6L350.6,274.4z
	 M377.8,301.3h33.7v-7.6h-25.7v-14.9h17.4v-7.6h-17.4V257h24.7v-7.6h-32.6V301.3z M16,281.5c1.8-0.6,3.4-1.4,4.9-2.5
	c1.5-1,2.8-2.2,3.8-3.5c1.1-1.3,1.9-2.8,2.5-4.4c0.6-1.6,0.9-3.3,0.9-5.1c0-2.5-0.5-4.9-1.5-6.9c-1-2.1-2.4-3.9-4.2-5.4
	c-1.8-1.5-4-2.6-6.6-3.5c-2.5-0.8-5.4-1.2-8.5-1.2h-17.4V301h7.9v-17.9h7.8l14.8,18h9.9l-15.8-19c0.4-0.1,0.8-0.3,1.1-0.4L16,281.5
	L16,281.5z M20.4,266.1c0,2.3-0.5,4.1-1.5,5.3c-1,1.3-2.2,2.3-3.6,2.9c-1.4,0.7-2.8,1.1-4.2,1.2c-1.4,0.2-2.5,0.3-3.2,0.3H-2v-19.4
	h9.9c4.7,0,7.9,1,9.8,3.1C19.5,261.6,20.4,263.8,20.4,266.1L20.4,266.1L20.4,266.1z M-99,278.6h10.6v1.5c0,2.1-0.5,4.1-1.4,5.8
	c-0.9,1.7-2.2,3.2-3.7,4.5c-1.5,1.2-3.3,2.2-5.2,2.9s-3.9,1-5.9,1c-2.2,0-4.5-0.5-6.8-1.6c-2.3-1-4.4-2.5-6.2-4.3
	c-1.8-1.8-3.1-3.7-4-6c-0.9-2.2-1.4-4.6-1.4-7c0-2.7,0.5-5.2,1.5-7.5c1-2.3,2.3-4.4,4-6.1s3.7-3.1,6-4.2c2.3-1,4.8-1.5,7.4-1.5
	c2.5,0,4.9,0.4,7,1.2s4.1,2,6,3.6l0.2,0.2l4.7-5.7l-0.1-0.1c-1.2-1.1-2.5-2.1-3.9-3c-1.4-0.8-2.8-1.5-4.3-2.1c-1.5-0.6-3-1-4.6-1.3
	c-1.6-0.3-3.3-0.4-5-0.4c-3.7,0-7.3,0.7-10.6,2.1c-3.3,1.4-6.2,3.3-8.7,5.7c-2.5,2.4-4.4,5.3-5.9,8.5c-1.4,3.3-2.1,6.7-2.1,10.4
	c0,3.6,0.7,7,2.2,10.2c1.4,3.2,3.4,6,5.8,8.5c2.4,2.4,5.3,4.4,8.6,5.8s6.7,2.1,10.4,2.1c1.8,0,3.6-0.2,5.4-0.6
	c1.8-0.4,3.5-0.9,5.1-1.7c1.6-0.8,3.2-1.7,4.6-2.7c1.5-1.1,2.8-2.3,3.9-3.7c2.2-2.6,3.7-5.2,4.3-7.8c0.7-2.6,1-5.1,1-7.5V271h-19
	L-99,278.6L-99,278.6z M130.8,249.1l-14,24.5l-14-24.5h-9.1l19.1,34.3v17.6h8v-17.6l19.1-34.3H130.8L130.8,249.1z M-61.6,249.1v52
	h33.7v-7.6h-25.7v-14.9h17.5V271h-17.5v-14.4h24.7v-7.5L-61.6,249.1L-61.6,249.1z M71.5,281.5c1.8-0.6,3.4-1.4,4.9-2.5
	c1.5-1,2.8-2.2,3.8-3.5c1.1-1.3,1.9-2.8,2.5-4.4c0.6-1.6,0.9-3.3,0.9-5.1c0-2.5-0.5-4.9-1.5-6.9c-1-2.1-2.4-3.9-4.2-5.4
	c-1.8-1.5-4-2.6-6.6-3.5s-5.4-1.2-8.5-1.2H45.4V301h7.9v-17.9h7.8l14.8,18h10L70,282c0.4-0.1,0.8-0.3,1-0.4
	C71.1,281.6,71.5,281.5,71.5,281.5z M75.9,266.1c0,2.3-0.5,4.1-1.5,5.3c-1,1.3-2.2,2.3-3.6,2.9c-1.4,0.7-2.8,1.1-4.2,1.2
	c-1.4,0.2-2.5,0.3-3.2,0.3h-9.9v-19.4h9.9c4.7,0,7.9,1,9.8,3.1C75,261.6,75.9,263.8,75.9,266.1L75.9,266.1L75.9,266.1z M454.3,281.5
	c1.8-0.6,3.4-1.4,4.9-2.5c1.5-1,2.8-2.2,3.8-3.5c1.1-1.3,1.9-2.8,2.5-4.4c0.6-1.6,0.9-3.3,0.9-5.1c0-2.5-0.5-4.9-1.5-6.9
	c-1-2.1-2.4-3.9-4.2-5.4c-1.8-1.5-4-2.6-6.6-3.5s-5.4-1.2-8.5-1.2h-17.3V301h7.8v-17.9h7.9l14.8,17.9h9.9l-15.8-19
	c0.4-0.1,0.7-0.2,1-0.3L454.3,281.5L454.3,281.5z M458.8,266.1c0,2.3-0.5,4.1-1.5,5.3c-1,1.3-2.2,2.3-3.6,2.9s-2.8,1.1-4.2,1.2
	s-2.5,0.3-3.2,0.3h-9.9v-19.4h9.9c2.3,0,4.3,0.3,5.9,0.9c1.6,0.6,2.9,1.3,3.8,2.2c1,0.9,1.7,2,2.1,3.1
	C458.6,263.8,458.8,264.9,458.8,266.1L458.8,266.1L458.8,266.1z"/>
</svg>
